<?xml version="1.0" encoding="utf-8"?>
<!-- Generator: Adobe Illustrator 24.2.3, SVG Export Plug-In . SVG Version: 6.00 Build 0)  -->
<svg version="1.1" id="Layer_1" xmlns="http://www.w3.org/2000/svg" xmlns:xlink="http://www.w3.org/1999/xlink" x="0px" y="0px"
	 viewBox="0 0 100 100" style="enable-background:new 0 0 100 100;" xml:space="preserve">
<style type="text/css">
	.st0{enable-background:new    ;}
	.st1{fill:#FFFFFF;}
	.st2{fill:none;stroke:#FFFFFF;stroke-width:3;stroke-linecap:round;stroke-linejoin:round;}
</style>
<g id="Layer_1_1_">
	<g class="st0">
		<path class="st1" d="M45,69.3l3.2,8.9h-1.9l-0.8-2.4h-2.8l-0.8,2.4h-1.9l3.2-8.9H45z M43.2,74.4h2l-1-3h0L43.2,74.4z"/>
		<path class="st1" d="M55.3,69.9v1.7c-0.9-0.8-1.7-1-2.5-1c-1.7,0-2.7,1.4-2.7,3.2s1,3,2.5,3c0.9,0,1.7-0.4,2.6-1.1v1.8
			c-0.9,0.5-1.9,0.8-2.8,0.8c-2.2,0-4.1-1.9-4.1-4.5c0-2.5,1.7-4.7,4.3-4.7C53.6,69.1,54.4,69.3,55.3,69.9z"/>
		<path class="st1" d="M62.5,69.3v1.5h-2.6v7.4h-1.7v-7.4h-2.5v-1.5H62.5z"/>
	</g>
	<path class="st2" d="M71.3,37.2c0,1.8-1.5,3.3-3.3,3.3c0,0,0,0,0,0h5.2c1.5,0.1,2.5,1.4,2.4,2.9c0,0.1,0,0.2,0,0.2
		c-0.1,1.3-1.1,2.3-2.4,2.4h-2.5c1.4,0.1,2.5,1.4,2.4,2.8c0,0,0,0,0,0v0.1c0.1,1.4-0.9,2.6-2.3,2.7c0,0,0,0,0,0H63
		c1.4,0.1,2.4,1.3,2.3,2.7v0.3c-0.1,1.5-1.4,2.6-2.8,2.6H43.9c-2.5,0-4.9-0.8-6.8-2.4c-1.1-0.8-2.4-1.3-3.7-1.3h-4
		c-0.8,0-1.4-0.6-1.4-1.4V38.1l0,0c0-0.8,0.7-1.5,1.5-1.5l0,0h2.1c0.8-0.1,1.6-0.5,2.1-1.2c2-2,5.5-5.7,9.3-7.1
		c2-0.7,5.9,1.7,7.6,3.2c0.5,0.7,0.8,1.5,0.7,2.4H68C69.8,33.9,71.3,35.4,71.3,37.2C71.3,37.2,71.3,37.2,71.3,37.2z"/>
	<line class="st2" x1="68" y1="40.5" x2="57.7" y2="40.5"/>
	<line class="st2" x1="57.6" y1="34.2" x2="47.2" y2="34.2"/>
	<line class="st2" x1="67.9" y1="51.5" x2="57.5" y2="51.5"/>
	<line class="st2" x1="71.3" y1="46" x2="57.7" y2="46"/>
</g>
</svg>
