<?xml version="1.0" encoding="utf-8"?>
<!-- Generator: Adobe Illustrator 24.2.3, SVG Export Plug-In . SVG Version: 6.00 Build 0)  -->
<svg version="1.1" id="Layer_1" xmlns="http://www.w3.org/2000/svg" xmlns:xlink="http://www.w3.org/1999/xlink" x="0px" y="0px"
	 viewBox="0 0 100 100" style="enable-background:new 0 0 100 100;" xml:space="preserve">
<style type="text/css">
	.st0{enable-background:new    ;}
	.st1{fill:#FFFFFF;}
	.st2{fill:none;stroke:#FFFFFF;stroke-width:3;stroke-linecap:round;stroke-linejoin:round;}
	.st3{fill:none;stroke:#FFFFFF;stroke-width:3;stroke-miterlimit:10;}
</style>
<g id="Layer_1_1_">
	<g class="st0">
		<path class="st1" d="M35.6,67.4l3.2,8.9h-1.9l-0.8-2.4h-2.8l-0.8,2.4h-1.9l3.2-8.9H35.6z M33.8,72.5h2l-1-3h0L33.8,72.5z"/>
	</g>
	<g class="st0">
		<path class="st1" d="M43.4,67.4c2.7,0,4,1.9,4,4.2c0,2.9-2,4.6-4.9,4.6h-3v-8.9H43.4z M42.4,74.8c1.8,0,3.2-1.1,3.2-3
			c0-1.6-0.8-2.9-2.6-2.9h-1.9v5.9H42.4z"/>
	</g>
	<g class="st0">
		<path class="st1" d="M52.3,67.4l3.2,8.9h-1.9l-0.8-2.4H50l-0.8,2.4h-1.9l3.2-8.9H52.3z M50.5,72.5h2l-1-3h0L50.5,72.5z"/>
		<path class="st1" d="M60.2,67.4c1.6,0,2.7,0.9,2.7,2.4c0,1.7-1.3,2.8-3.1,2.8h-1.9v3.7h-1.7v-8.9H60.2z M59.5,71.1
			c1,0,1.6-0.5,1.6-1.2c0-0.6-0.5-1-1.4-1h-1.9v2.2H59.5z"/>
		<path class="st1" d="M70,67.4v1.5h-2.6v7.4h-1.7v-7.4h-2.5v-1.5H70z"/>
	</g>
	<polyline class="st2" points="66.3,34.4 67.5,33.8 75.1,29.9 79.6,38.7 	"/>
	<polyline class="st2" points="31.4,51.3 22.3,56 17.6,46.9 	"/>
	<path class="st2" d="M75.1,29.9l-2.9,9c-1.6,5-9.2,8.5-15.6,7.1"/>
	<path class="st2" d="M22.8,55.3l2.5-7.8c1.6-4.9,8.2-8.9,17.7-5.9"/>
	<path class="st3" d="M47.8,36.4h5c1.9,0,3.5,1.6,3.5,3.5v5.5c0,1.9-1.6,3.5-3.5,3.5h-5c-1.9,0-3.5-1.6-3.5-3.5v-5.5
		C44.4,38,45.9,36.4,47.8,36.4z"/>
</g>
</svg>
