<?xml version="1.0" encoding="utf-8"?>
<!-- Generator: Adobe Illustrator 24.2.3, SVG Export Plug-In . SVG Version: 6.00 Build 0)  -->
<svg version="1.1" id="Layer_1" xmlns="http://www.w3.org/2000/svg" xmlns:xlink="http://www.w3.org/1999/xlink" x="0px" y="0px"
	 viewBox="0 0 100 100" style="enable-background:new 0 0 100 100;" xml:space="preserve">
<style type="text/css">
	.st0{enable-background:new    ;}
	.st1{fill:#FFFFFF;}
	.st2{fill:none;stroke:#FFFFFF;stroke-width:3;stroke-linejoin:round;}
</style>
<g id="Layer_1_1_">
	<g class="st0">
		<path class="st1" d="M31.1,67c1.3,0,2.3,0.8,2.3,2.1c0,1-0.6,1.8-1.6,2.1v0c1.4,0.1,2.2,0.9,2.2,2.1c0,1.8-1.8,2.7-3.5,2.7h-3.7
			V67H31.1z M30.1,70.6c0.9,0,1.6-0.4,1.6-1.1c0-0.6-0.5-0.9-1.2-0.9h-1.9v2.1H30.1z M30.3,74.4c1.2,0,2-0.5,2-1.3
			c0-0.7-0.7-1.2-1.5-1.2h-2.1v2.5H30.3z"/>
		<path class="st1" d="M41.2,67.1v1.5h-4.3v2.1H41V72h-4.1v2.4h4.3v1.5h-6v-8.9H41.2z"/>
		<path class="st1" d="M44.3,67.1v7.4h4.2v1.5h-5.9v-8.9H44.3z"/>
		<path class="st1" d="M51.4,67.1v8.9h-1.7v-8.9H51.4z"/>
		<path class="st1" d="M59,67.1v1.5h-4.3v2.1h4.1V72h-4.1v2.4H59v1.5h-6v-8.9H59z"/>
		<path class="st1" d="M61.5,67.1l2.2,6.8l2.2-6.8h1.9l-3.3,8.9h-1.7l-3.2-8.9H61.5z"/>
		<path class="st1" d="M74.5,67.1v1.5h-4.3v2.1h4.1V72h-4.1v2.4h4.3v1.5h-6v-8.9H74.5z"/>
	</g>
	<path class="st2" d="M51.1,57.7c-1,0-9.1-5-13.6-8.3c-4.1-3.1-5.6-5.3-6.5-8.7c-1-3.5-0.1-7.3,2.2-10.1c2.3-2.6,5.7-4.1,9.2-4
		c3.1,0,6.4,2.5,8.7,5.5c2.2-2.9,5.5-5.5,8.7-5.5c3.5-0.1,6.9,1.4,9.2,4c2.3,2.8,3.2,6.6,2.2,10.1c-1,3.4-2.5,5.6-6.5,8.7
		C60.2,52.7,52,57.7,51.1,57.7z"/>
</g>
</svg>
