<?xml version="1.0" encoding="utf-8"?>
<!-- Generator: Adobe Illustrator 24.3.0, SVG Export Plug-In . SVG Version: 6.00 Build 0)  -->
<svg version="1.1" id="Layer_1" xmlns="http://www.w3.org/2000/svg" xmlns:xlink="http://www.w3.org/1999/xlink" x="0px" y="0px"
	 viewBox="0 0 289.7 292" style="enable-background:new 0 0 289.7 292;" xml:space="preserve">
<style type="text/css">
	.st0{fill:#33548F;}
</style>
<g id="Layer_1_1_">
	<path class="st0" d="M197.2,5.4c-4.6-1.8-9.3-3.3-14-4.7c-1.3-0.4-2.7,0.3-3.2,1.6s0.3,2.7,1.6,3.2c0.1,0,0.2,0.1,0.3,0.1
		c4.6,1.3,9.1,2.8,13.5,4.5c13.7,5.3,26.5,12.8,37.8,22.2l9.9,23.8l20.5-14.6L237.1,29C225.2,19,211.7,11,197.2,5.4z"/>
	<path class="st0" d="M55.6,32.5c6.3-5.2,13-9.9,20-13.9l-1.9,7.8l3.9,1L81,13.3L66.8,9.6l-1,3.9l7.3,1.8c-7.1,4.1-13.8,8.8-20.1,14
		L55.6,32.5z"/>
	<path class="st0" d="M102.5,271.6c-2.8-0.9-5.5-1.9-8.2-2.9C82.3,264,71,257.7,60.8,250l-11-24.1L30,241.3l27.6,12.5v-0.1
		c10.6,8.1,22.4,14.7,34.8,19.5c2.8,1.1,5.7,2.1,8.5,3c1.3,0.4,2.7-0.3,3.1-1.6C104.5,273.4,103.8,272,102.5,271.6L102.5,271.6z"/>
	<path class="st0" d="M235.9,244.2c-12.8,11-27.4,19.7-43.2,25.5l-26.4-3.8l2.2,25.1l25.5-16.4c16.5-6,31.8-15,45.1-26.5
		c1.1-0.8,1.3-2.4,0.5-3.5c-0.8-1.1-2.4-1.3-3.5-0.5C236,244.1,235.9,244.2,235.9,244.2z"/>
	<path class="st0" d="M285.6,109.9c-0.3-1.4-1.6-2.2-2.9-1.9c-1.4,0.3-2.2,1.6-2,2.9l0,0c3.7,17.6,3.9,35.7,0.7,53.3L264.9,185
		l22.7,10.8l-1.4-30.2C289.7,147.2,289.5,128.3,285.6,109.9z"/>
	<path class="st0" d="M23.6,101.6L0.2,92.3L2,122c-2.1,17.1-1.1,34.5,3,51.3c0.3,1.1,1.3,1.9,2.4,1.9c0.2,0,0.4,0,0.6-0.1
		c1.3-0.3,2.1-1.7,1.8-3c-3.9-16-4.9-32.6-3-48.9L23.6,101.6z"/>
</g>
</svg>
