<?xml version="1.0" encoding="utf-8"?>
<!-- Generator: Adobe Illustrator 24.2.3, SVG Export Plug-In . SVG Version: 6.00 Build 0)  -->
<svg version="1.1" id="Layer_1" xmlns="http://www.w3.org/2000/svg" xmlns:xlink="http://www.w3.org/1999/xlink" x="0px" y="0px"
	 viewBox="0 0 100 100" style="enable-background:new 0 0 100 100;" xml:space="preserve">
<style type="text/css">
	.st0{enable-background:new    ;}
	.st1{fill:#FFFFFF;}
	.st2{fill:none;stroke:#FFFFFF;stroke-width:3;stroke-linecap:round;stroke-linejoin:round;}
</style>
<g id="Layer_1_1_">
	<g class="st0">
		<path class="st1" d="M38.4,67v1.5h-4.3v2.2h4.1v1.4h-4.1v3.7h-1.7V67H38.4z"/>
		<path class="st1" d="M43.6,67.1c1.6,0,2.7,0.8,2.7,2.2c0,1.3-0.8,2.1-2.4,2.4v0c0.4,0.1,0.8,0.3,0.9,0.4c0.4,0.3,0.6,0.5,0.9,1.5
			l0.9,2.3h-1.8l-0.6-2c-0.2-0.5-0.4-0.9-0.5-1.1c-0.4-0.5-0.8-0.6-1.8-0.6h-0.4v3.7h-1.7v-8.9H43.6z M42.8,70.8
			c1.2,0,1.8-0.5,1.8-1.2c0-0.6-0.5-1-1.2-1h-2v2.2H42.8z"/>
		<path class="st1" d="M51.5,67.1l3.2,8.9h-1.9l-0.8-2.4h-2.8l-0.8,2.4h-1.9l3.2-8.9H51.5z M49.7,72.1h2l-1-3h0L49.7,72.1z"/>
		<path class="st1" d="M57.3,67.1l2.6,4.3l2.6-4.3h1.9v8.9h-1.7v-6.2h0l-2.7,4.6l-2.7-4.6h0v6.2h-1.7v-8.9H57.3z"/>
		<path class="st1" d="M72,67.1v1.5h-4.3v2.1h4.1V72h-4.1v2.4H72v1.5h-6v-8.9H72z"/>
	</g>
	<line class="st2" x1="54.8" y1="50.8" x2="58.7" y2="56.7"/>
	<path class="st2" d="M36.8,33.1c-4.3,0-7.8,3.5-7.8,7.9c0,4.3,3.5,7.8,7.9,7.8c1.8,0,3.5-0.6,4.9-1.8"/>
	<path class="st2" d="M65.6,37.5c3,3.5,2.6,8.7-0.9,11.7c-0.8,0.7-1.7,1.2-2.7,1.5l1.5,5.9"/>
	<path class="st2" d="M38.5,48.5c3.1,5,9.6,6.5,14.6,3.4c1.5-1,2.8-2.3,3.7-3.9"/>
	<path class="st2" d="M34.4,33.4c1.2-5,6.2-8.2,11.3-7c1.9,0.5,3.7,1.5,5,3"/>
	<path class="st2" d="M49.8,28.2c3.5-3.8,9.4-4.1,13.2-0.6s4.1,9.4,0.6,13.2c-0.3,0.3-0.5,0.5-0.8,0.8"/>
</g>
</svg>
