<?xml version="1.0" encoding="utf-8"?>
<!-- Generator: Adobe Illustrator 24.2.3, SVG Export Plug-In . SVG Version: 6.00 Build 0)  -->
<svg version="1.1" id="Layer_1" xmlns="http://www.w3.org/2000/svg" xmlns:xlink="http://www.w3.org/1999/xlink" x="0px" y="0px"
	 viewBox="0 0 100 100" style="enable-background:new 0 0 100 100;" xml:space="preserve">
<style type="text/css">
	.st0{enable-background:new    ;}
	.st1{fill:#FFFFFF;}
	.st2{fill:none;stroke:#FFFFFF;stroke-width:3;stroke-linecap:round;stroke-linejoin:round;}
</style>
<g id="Layer_1_1_">
	<g class="st0">
		<path class="st1" d="M36.2,68.2v3.8l3.3-3.8h2l-2.9,3.2l3.2,5.6h-2l-2.3-4.3l-1.2,1.4V77h-1.7v-8.9H36.2z"/>
		<path class="st1" d="M44.2,68.2l3.8,6h0v-6h1.7V77h-1.7l-3.8-6.1h0V77h-1.7v-8.9H44.2z"/>
	</g>
	<g class="st0">
		<path class="st1" d="M59.6,72.6c0,2.6-1.9,4.6-4.4,4.6c-2.5,0-4.3-1.9-4.3-4.6c0-2.5,1.9-4.5,4.3-4.5C57.9,68,59.6,70.1,59.6,72.6
			z M55.3,75.7c1.5,0,2.6-1.4,2.6-3.1c0-1.8-1.1-3.1-2.5-3.1c-1.5,0-2.6,1.4-2.6,3.1C52.7,74.3,53.8,75.7,55.3,75.7z"/>
	</g>
	<g class="st0">
		<path class="st1" d="M61.8,68.2l1.2,6.1h0l1.3-6.1H66l1.3,6.1h0l1.2-6.1h1.8L68.1,77h-1.7l-1.3-6.1h0L63.8,77h-1.7l-2.2-8.9H61.8z
			"/>
	</g>
	<path class="st2" d="M52.3,59.7c0-3.5-2.8-6.3-6.3-6.3H34l0.5-28.2H46c3.5,0,6.3,2.8,6.3,6.3"/>
	<path class="st2" d="M52.3,59.7c0-3.5,2.8-6.3,6.3-6.3h12l-0.5-28.2H58.6c-3.5,0-6.3,2.8-6.3,6.3c0,0,0,0,0,0"/>
	<line class="st2" x1="52.6" y1="31.3" x2="52.6" y2="45.5"/>
</g>
</svg>
