<?xml version="1.0" encoding="utf-8"?>
<!-- Generator: Adobe Illustrator 24.2.3, SVG Export Plug-In . SVG Version: 6.00 Build 0)  -->
<svg version="1.1" id="Layer_1" xmlns="http://www.w3.org/2000/svg" xmlns:xlink="http://www.w3.org/1999/xlink" x="0px" y="0px"
	 viewBox="0 0 100 100" style="enable-background:new 0 0 100 100;" xml:space="preserve">
<style type="text/css">
	.st0{enable-background:new    ;}
	.st1{fill:#FFFFFF;}
	.st2{fill:none;stroke:#FFFFFF;stroke-width:3;stroke-linecap:round;stroke-linejoin:round;}
</style>
<g id="Layer_1_1_">
	<g class="st0">
		<path class="st1" d="M24.9,67.4c1.4,0,2.4,0.7,2.4,1.9c0,1.1-0.7,1.8-2.2,2.1l0,0c0.4,0.1,0.7,0.2,0.8,0.4
			c0.3,0.3,0.5,0.4,0.8,1.3l0.8,2.1h-1.6l-0.6-1.7c-0.1-0.5-0.3-0.8-0.5-1c-0.4-0.4-0.7-0.6-1.6-0.6h-0.3v3.3h-1.5v-7.8
			C21.4,67.4,24.9,67.4,24.9,67.4z M24.2,70.7c1,0,1.6-0.5,1.6-1.1c0-0.5-0.4-0.9-1.1-0.9H23v2H24.2z"/>
		<path class="st1" d="M33.7,67.4v1.3h-3.8v1.8h3.6v1.2h-3.6v2.2h3.8v1.3h-5.3v-7.8H33.7z"/>
		<path class="st1" d="M36.5,67.4v7.8H35v-7.8H36.5z"/>
		<path class="st1" d="M39.5,67.4l3.4,5.3l0,0v-5.3h1.5v7.8h-1.5l-3.4-5.4l0,0v5.4H38v-7.8H39.5z"/>
		<path class="st1" d="M51.2,67.4v1.3h-3.8v2H51V72h-3.6v3.3h-1.5v-7.9H51.2z"/>
		<path class="st1" d="M59.6,71.3c0,2.3-1.7,4.1-3.9,4.1s-3.8-1.7-3.8-4.1c0-2.2,1.7-4,3.8-4C58.1,67.3,59.6,69.2,59.6,71.3z
			 M55.8,74.1c1.3,0,2.3-1.2,2.3-2.8c0-1.6-1-2.8-2.2-2.8c-1.3,0-2.3,1.2-2.3,2.8C53.5,72.9,54.4,74.1,55.8,74.1z"/>
	</g>
	<g class="st0">
		<path class="st1" d="M64.1,67.4c1.4,0,2.4,0.7,2.4,1.9c0,1.1-0.7,1.8-2.2,2.1l0,0c0.4,0.1,0.7,0.2,0.8,0.4
			c0.3,0.3,0.5,0.4,0.8,1.3l0.8,2.1h-1.6l-0.6-1.7c-0.1-0.5-0.3-0.8-0.5-1c-0.4-0.4-0.7-0.6-1.6-0.6h-0.3v3.3h-1.5v-7.8
			C60.6,67.4,64.1,67.4,64.1,67.4z M63.4,70.7c1,0,1.6-0.5,1.6-1.1c0-0.5-0.4-0.9-1.1-0.9h-1.7v2H63.4z"/>
	</g>
	<g class="st0">
		<path class="st1" d="M73.4,68v1.5c-0.8-0.7-1.5-0.9-2.2-0.9c-1.5,0-2.4,1.3-2.4,2.8s0.9,2.7,2.2,2.7c0.8,0,1.5-0.3,2.3-0.9v1.6
			c-0.8,0.4-1.7,0.7-2.5,0.7c-2,0-3.6-1.7-3.6-3.9c0-2.2,1.5-4.2,3.8-4.2C71.8,67.3,72.5,67.5,73.4,68z"/>
		<path class="st1" d="M79.7,67.4v1.3h-3.8v1.8h3.6v1.2h-3.6v2.2h3.8v1.3h-5.3v-7.8H79.7z"/>
	</g>
	<polyline class="st2" points="57.7,44.1 57.7,57.7 50.6,52.7 44.2,57.7 44.2,44.1 	"/>
	<polygon class="st2" points="63.1,32.3 64.6,36.8 60.8,39.6 59.3,44.1 54.6,44.1 50.7,46.9 46.9,44.1 42.2,44.1 40.7,39.6 
		36.9,36.8 38.3,32.3 36.9,27.8 40.7,25 42.2,20.5 46.9,20.5 50.7,17.8 54.6,20.5 59.3,20.5 60.8,25 64.6,27.8 	"/>
</g>
</svg>
